<?xml version="1.0" standalone="no"?>
<!DOCTYPE svg PUBLIC "-//W3C//DTD SVG 20010904//EN"
 "http://www.w3.org/TR/2001/REC-SVG-20010904/DTD/svg10.dtd">
<svg version="1.0" xmlns="http://www.w3.org/2000/svg"
 width="935.000000pt" height="219.000000pt" viewBox="0 0 935.000000 219.000000"
 preserveAspectRatio="xMidYMid meet">
<metadata>
Created by potrace 1.16, written by Peter Selinger 2001-2019
</metadata>
<g transform="translate(0.000000,219.000000) scale(0.100000,-0.100000)"
fill="#000000" stroke="none">
<path d="M0 1095 l0 -1095 4675 0 4675 0 0 1095 0 1095 -4675 0 -4675 0 0
-1095z m1447 1060 c66 -15 186 -57 228 -79 50 -28 135 -87 135 -95 0 -5 13
-14 29 -21 30 -12 93 -78 159 -165 39 -51 122 -188 122 -200 0 -4 6 -21 14
-38 39 -88 76 -290 76 -417 0 -88 -31 -257 -59 -323 -11 -26 -25 -65 -31 -87
-6 -22 -15 -40 -20 -40 -5 0 -19 -19 -31 -42 -40 -81 -137 -188 -169 -188 -10
0 -46 23 -80 51 l-61 52 6 71 c9 90 -8 182 -46 257 -48 96 -184 222 -316 294
-26 15 -84 47 -128 72 -94 53 -172 93 -183 93 -16 0 -127 111 -124 124 1 8 -2
17 -8 21 -6 3 -7 0 -4 -9 7 -19 -9 -21 -24 -3 -25 30 -84 156 -98 211 -31 120
9 243 115 347 65 65 115 95 185 114 69 19 230 18 313 0z m1345 -147 c47 -14
106 -71 113 -111 3 -18 5 -68 3 -112 l-3 -80 -64 -3 c-35 -2 -68 1 -72 5 -5 5
-9 55 -9 113 -2 120 -6 140 -26 140 -8 0 -14 4 -14 9 0 18 -38 -1 -49 -25 -14
-32 -14 -158 0 -223 6 -28 24 -67 40 -88 15 -21 43 -58 61 -83 17 -25 34 -47
37 -50 3 -3 20 -23 38 -46 51 -66 65 -125 61 -253 -3 -110 -3 -110 -37 -145
-84 -87 -259 -83 -331 7 -22 28 -25 42 -28 131 -4 113 3 126 67 126 82 0 81 0
81 -122 0 -113 7 -140 40 -158 15 -8 24 -6 40 10 19 19 21 32 19 128 -1 59 -6
120 -10 136 -8 27 -61 108 -134 206 -100 133 -104 144 -105 293 0 76 3 92 25
127 27 43 48 57 115 76 45 13 75 11 142 -8z m3511 -11 c12 -8 36 -28 53 -43
30 -28 31 -32 33 -123 2 -133 3 -131 -80 -131 l-69 0 0 123 c0 82 -4 127 -12
135 -16 16 -75 15 -81 -1 -10 -27 -7 -221 4 -255 6 -19 26 -54 43 -77 17 -22
40 -54 51 -69 11 -15 36 -49 56 -75 82 -107 84 -112 84 -258 l0 -132 -34 -35
c-36 -37 -65 -50 -137 -61 -63 -10 -177 23 -188 53 -4 9 -13 28 -21 42 -10 17
-15 55 -15 121 0 109 0 109 75 109 76 0 75 3 75 -136 0 -113 2 -124 20 -134
30 -16 69 -2 77 27 3 14 3 77 0 140 -5 106 -7 117 -31 142 -14 15 -26 31 -26
37 0 8 -82 120 -113 154 -8 8 -27 35 -43 60 -27 42 -29 53 -32 167 -4 111 -2
126 17 157 28 45 43 56 102 76 59 19 154 12 192 -13z m-2717 -5 c10 -20 2
-148 -11 -160 -9 -10 -115 -6 -125 4 -7 7 -10 43 -8 90 3 79 3 79 33 85 55 13
99 5 111 -19z m634 18 c48 -13 107 -71 115 -112 3 -18 5 -69 3 -113 l-3 -80
-64 -3 c-35 -2 -68 1 -72 5 -5 5 -9 58 -10 118 -1 104 -3 111 -27 133 -32 28
-48 28 -67 -2 -14 -21 -16 -80 -15 -452 0 -382 2 -430 17 -446 9 -10 27 -18
41 -18 43 0 51 25 52 147 0 101 2 113 19 123 27 14 104 13 119 -2 16 -16 16
-179 0 -215 -18 -40 -56 -69 -110 -87 -56 -19 -80 -20 -149 -5 -65 14 -125 65
-139 121 -7 25 -10 170 -8 411 3 423 2 413 87 461 50 28 143 35 211 16z m3281
-26 c1 -13 3 -28 4 -34 1 -5 3 -50 4 -100 l1 -90 29 0 c39 0 61 -9 61 -26 0
-13 -17 -17 -67 -17 -20 0 -21 -6 -28 -126 -4 -69 -5 -214 -1 -321 8 -213 13
-230 68 -230 21 0 28 -5 28 -19 0 -23 -59 -37 -87 -22 -10 6 -34 14 -53 19
-25 6 -44 21 -65 51 l-30 43 -3 300 c-3 288 -4 300 -22 305 -26 7 -26 33 0 40
18 5 20 14 20 97 0 105 13 136 59 136 16 0 34 6 41 14 16 20 40 9 41 -20z
m-7076 -124 c20 -16 41 -27 46 -24 5 3 9 0 9 -7 0 -7 8 -21 18 -32 14 -16 17
-39 17 -151 0 -116 3 -137 24 -186 13 -30 31 -62 40 -70 9 -9 25 -33 35 -53
11 -21 29 -43 40 -49 12 -6 39 -30 61 -52 23 -23 56 -51 75 -63 19 -11 87 -53
150 -93 63 -39 122 -76 130 -81 8 -5 35 -19 60 -32 25 -12 47 -26 49 -30 1 -4
22 -20 45 -34 82 -51 139 -112 176 -188 61 -125 72 -198 46 -299 -16 -61 -66
-158 -99 -194 -28 -31 -121 -86 -172 -103 -22 -7 -45 -17 -52 -22 -26 -19
-196 -20 -278 -2 -151 34 -309 105 -385 174 -25 22 -48 41 -52 41 -4 0 -26 21
-50 46 -24 25 -62 66 -85 91 -24 25 -43 51 -43 57 0 7 -9 21 -20 31 -11 10
-22 27 -26 39 -4 11 -19 40 -34 62 -15 23 -31 57 -35 75 -4 19 -11 39 -15 44
-55 75 -79 451 -40 625 32 145 68 229 141 332 10 15 19 30 19 34 0 15 108 123
135 134 29 13 29 13 70 -20z m2800 -101 c62 -17 101 -52 113 -101 6 -25 11
-160 11 -323 1 -278 1 -280 23 -297 36 -26 11 -39 -73 -38 -105 1 -107 1 -176
-6 -54 -5 -66 -3 -92 16 -52 36 -61 66 -61 195 0 167 28 217 128 230 26 4 59
9 75 11 l27 6 0 123 c0 136 -7 153 -54 135 -25 -9 -26 -12 -26 -100 0 -49 -3
-90 -7 -90 -5 -1 -33 -3 -64 -6 -35 -4 -59 -2 -63 5 -12 19 -9 137 4 161 19
36 49 58 100 74 56 18 84 19 135 5z m1480 -19 c74 -36 75 -42 75 -384 0 -290
0 -295 21 -310 14 -9 19 -21 15 -31 -5 -14 -21 -16 -98 -14 -51 1 -115 -2
-141 -6 -65 -10 -131 15 -154 58 -26 49 -25 258 1 311 24 48 80 75 153 76 48
0 53 2 59 25 9 37 0 233 -11 244 -6 5 -22 7 -37 4 l-28 -5 0 -93 c0 -88 -1
-93 -22 -99 -38 -10 -103 -7 -116 6 -15 15 -16 94 -1 139 33 97 168 135 284
79z m320 18 c11 1 43 2 70 3 104 4 137 -31 143 -156 l4 -84 -35 -6 c-28 -6
-66 -4 -114 5 -1 0 -4 42 -5 93 l-3 92 -32 3 -33 3 0 -325 c0 -322 0 -325 22
-346 35 -33 12 -43 -97 -43 -105 1 -136 13 -100 39 19 14 20 28 23 340 l3 325
-23 19 c-15 12 -20 22 -13 29 11 11 118 20 150 13 11 -2 29 -4 40 -4z m510 0
c116 -23 147 -79 144 -264 -1 -81 -5 -127 -13 -132 -6 -4 -59 -6 -118 -4
l-107 3 -6 -35 c-4 -18 -5 -86 -3 -151 3 -102 5 -118 22 -131 11 -8 26 -14 33
-14 25 0 43 57 43 135 l0 76 73 -3 72 -3 -1 -71 c-1 -84 -18 -113 -79 -143
-102 -49 -225 -30 -278 44 l-28 41 0 263 c0 335 3 343 111 383 56 20 63 21
135 6z m1695 -31 c48 -41 77 -154 51 -196 -10 -15 -80 -26 -116 -17 -23 6 -24
10 -27 99 l-3 92 -35 0 -35 0 -3 -71 c-3 -78 23 -159 55 -171 33 -12 153 -137
164 -172 7 -19 9 -68 7 -115 -8 -128 -44 -168 -163 -182 -109 -13 -204 52
-213 145 -2 27 -2 61 2 75 6 25 10 26 76 26 l70 0 0 -81 c0 -72 3 -83 23 -100
47 -39 57 -23 57 95 0 79 -2 85 -32 124 -18 22 -56 58 -85 81 -85 67 -105 100
-111 185 -5 88 7 132 51 173 43 41 79 51 162 45 60 -4 75 -9 105 -35z m1427
27 c78 -28 78 -29 78 -369 1 -287 5 -345 26 -345 5 0 9 -9 9 -20 0 -18 -7 -20
-62 -21 -35 0 -73 -2 -85 -3 -12 -1 -24 3 -27 11 -3 7 -6 159 -6 337 -1 177
-4 332 -7 344 -4 17 -13 22 -39 22 -18 0 -36 -4 -39 -10 -3 -5 -6 -153 -5
-327 0 -317 1 -318 23 -335 15 -12 19 -20 11 -28 -13 -13 -140 -23 -160 -12
-13 7 -15 50 -16 320 -1 172 -4 329 -7 350 -6 34 -9 37 -41 37 l-35 0 -6 -90
c-4 -49 -7 -188 -8 -307 -1 -208 6 -268 31 -268 4 0 8 -8 8 -19 0 -14 -10 -19
-47 -23 -65 -7 -155 0 -167 13 -8 7 -5 15 9 25 19 14 20 28 23 344 3 326 3
328 -18 335 -13 4 -20 13 -18 23 3 15 23 17 163 19 90 2 175 -2 195 -8 26 -8
49 -7 89 4 71 18 79 18 128 1z m404 1 c53 -19 95 -57 109 -99 10 -32 8 -116
-4 -135 -10 -15 -98 -14 -119 2 -13 9 -17 32 -19 96 -2 67 -7 86 -20 95 -13 8
-23 8 -35 0 -15 -10 -18 -27 -18 -103 l0 -92 74 -70 c41 -39 78 -66 84 -62 7
3 9 3 5 -2 -4 -4 5 -23 21 -41 23 -26 31 -46 36 -99 9 -78 1 -150 -20 -181
-43 -67 -160 -90 -254 -51 -45 18 -59 30 -78 66 -14 26 -23 61 -23 87 0 71 4
74 81 74 l69 0 0 -81 c0 -44 5 -89 10 -100 15 -27 56 -25 64 4 10 36 7 165 -4
172 -5 3 -10 14 -10 25 0 10 -16 31 -35 47 -88 70 -164 154 -170 186 -9 47 1
158 16 190 15 33 61 63 115 76 57 13 77 13 125 -4z m-5473 -339 c2 -326 3
-339 23 -368 32 -44 16 -52 -97 -51 -104 0 -135 13 -99 39 19 14 20 28 23 344
3 323 2 329 -18 335 -20 6 -26 25 -13 39 4 4 46 5 93 4 l85 -3 3 -339z m3022
-4 c5 -356 6 -361 46 -362 36 0 39 26 37 344 -2 276 -4 312 -19 323 -9 7 -14
19 -11 28 5 12 23 15 87 15 75 0 81 -2 88 -22 13 -37 7 -830 -6 -855 -7 -12
-31 -36 -54 -55 -40 -31 -46 -33 -123 -33 -73 0 -84 3 -121 30 -63 45 -90 105
-65 144 10 16 79 20 124 8 28 -8 28 -9 22 -60 -6 -44 -4 -55 13 -70 18 -17 20
-17 42 1 19 16 23 29 25 86 2 38 -2 69 -8 73 -6 3 -36 5 -68 4 -66 -3 -110 15
-136 56 -16 24 -18 61 -21 335 -3 293 -4 307 -23 313 -18 6 -25 25 -13 37 3 3
44 5 92 4 l87 -1 5 -343z m1362 318 c55 -37 63 -65 63 -225 l0 -140 -105 -3
c-142 -3 -143 -4 -135 -161 7 -140 11 -157 30 -165 21 -8 45 3 45 20 0 8 5 14
10 14 6 0 10 35 10 85 l0 85 69 0 c63 0 69 -2 75 -22 22 -82 -12 -163 -82
-198 -109 -55 -248 -20 -289 72 -18 39 -19 65 -18 300 2 240 4 258 23 290 39
62 78 78 187 75 66 -2 87 -7 117 -27z m-1700 -1117 c-23 -5 -23 -5 -20 -159 2
-85 0 -154 -4 -154 -10 0 -11 304 -1 313 3 4 16 6 27 6 19 -2 19 -2 -2 -6z
m123 -151 l1 -152 -3 151 c-3 145 -4 151 -23 146 -11 -3 -20 -1 -20 5 0 5 10
8 23 6 22 -3 22 -5 22 -156z m1595 149 c0 -5 -9 -7 -20 -4 -19 5 -20 0 -22
-153 l-2 -159 -3 150 c-2 82 -1 155 1 162 6 15 46 18 46 4z m1158 -153 c1 -87
-1 -158 -5 -158 -5 0 -7 70 -5 155 3 131 1 155 -12 155 -8 0 -17 -6 -19 -12
-3 -8 -6 -5 -6 5 -1 14 5 18 22 15 22 -3 22 -6 25 -160z m-4813 142 c-28 -12
-37 -12 -30 0 3 6 16 10 28 9 21 0 21 -1 2 -9z m819 1 c4 -5 -3 -7 -14 -4 -23
6 -26 13 -6 13 8 0 17 -4 20 -9z m2941 -21 c0 -18 -6 -26 -23 -28 -13 -2 -25
3 -28 12 -10 26 4 48 28 44 17 -2 23 -10 23 -28z m-5140 -125 l1 -140 -3 137
c-3 132 -4 137 -26 141 -19 5 -19 5 3 4 l25 -2 0 -140z m1425 138 c0 -12 -33
-43 -45 -43 -7 0 -19 8 -26 18 -13 15 -12 16 3 3 21 -16 48 -8 48 14 0 8 5 15
10 15 6 0 10 -3 10 -7z m670 3 c0 -2 -8 -10 -17 -17 -16 -13 -17 -12 -4 4 13
16 21 21 21 13z m530 -3 c0 -5 -36 -7 -80 -5 l-80 4 0 -141 0 -140 78 -4 77
-3 -80 0 -80 1 -3 134 c-1 74 0 141 2 148 6 14 166 19 166 6z m1928 0 l-58 -4
0 -139 0 -139 63 -4 62 -4 -65 1 -65 1 -3 134 c-1 74 0 141 2 148 4 9 24 12
63 11 l58 -2 -57 -3z m479 -220 c-1 -43 -3 -10 -3 72 0 83 2 118 3 78 2 -40 2
-107 0 -150z m-2856 190 c13 -15 12 -15 -8 -2 -20 12 -26 12 -45 0 -21 -13
-22 -13 -9 2 7 10 21 17 31 17 10 0 24 -7 31 -17z m2522 -6 c4 3 7 4 7 0 0
-17 -20 -14 -36 6 -19 22 -19 22 2 4 11 -9 24 -14 27 -10z m-2619 -68 c4 -8 0
-5 -8 5 -9 11 -16 31 -15 45 1 24 2 24 8 -5 4 -17 11 -37 15 -45z m504 64
c-16 -2 -40 -2 -55 0 -16 2 -3 4 27 4 30 0 43 -2 28 -4z m1952 -105 l-5 -113
-3 99 c-2 88 1 126 10 126 2 0 1 -51 -2 -112z m63 105 c-7 -2 -19 -2 -25 0 -7
3 -2 5 12 5 14 0 19 -2 13 -5z m48 -20 c13 -15 12 -15 -8 -4 -24 12 -29 21
-14 21 5 0 15 -7 22 -17z m-2475 -21 c-17 -16 -18 -16 -5 5 7 12 15 20 18 17
3 -2 -3 -12 -13 -22z m-1983 11 c-7 -2 -21 -2 -30 0 -10 3 -4 5 12 5 17 0 24
-2 18 -5z m230 0 c-7 -2 -19 -2 -25 0 -7 3 -2 5 12 5 14 0 19 -2 13 -5z m230
0 c-7 -2 -21 -2 -30 0 -10 3 -4 5 12 5 17 0 24 -2 18 -5z m430 0 c-7 -2 -21
-2 -30 0 -10 3 -4 5 12 5 17 0 24 -2 18 -5z m495 0 c-10 -2 -26 -2 -35 0 -10
3 -2 5 17 5 19 0 27 -2 18 -5z m143 -7 c-8 -10 -11 -48 -9 -114 2 -55 0 -98
-4 -95 -14 8 -9 211 5 216 19 8 20 8 8 -7z m102 7 c-7 -2 -19 -2 -25 0 -7 3
-2 5 12 5 14 0 19 -2 13 -5z m857 -3 c-13 -8 -13 -12 -1 -32 13 -21 13 -22 -2
-9 -23 18 -22 51 1 51 14 0 15 -2 2 -10z m154 -20 c-6 -6 -10 -3 -10 10 0 13
4 16 10 10 7 -7 7 -13 0 -20z m120 21 c-17 -4 -37 -11 -45 -15 -8 -4 -5 0 5 8
11 9 31 16 45 15 24 -1 24 -2 -5 -8z m219 2 c-7 -2 -19 -2 -25 0 -7 3 -2 5 12
5 14 0 19 -2 13 -5z m430 0 c-7 -2 -21 -2 -30 0 -10 3 -4 5 12 5 17 0 24 -2
18 -5z m161 -1 c2 -4 -4 -8 -14 -8 -10 0 -16 4 -14 8 3 4 9 8 14 8 5 0 11 -4
14 -8z m63 -2 c-16 -5 -34 -12 -41 -17 -6 -4 -3 0 7 10 11 9 29 17 41 16 17
-1 16 -2 -7 -9z m236 3 c-7 -2 -19 -2 -25 0 -7 3 -2 5 12 5 14 0 19 -2 13 -5z
m200 0 c-7 -2 -21 -2 -30 0 -10 3 -4 5 12 5 17 0 24 -2 18 -5z m610 0 c-7 -2
-21 -2 -30 0 -10 3 -4 5 12 5 17 0 24 -2 18 -5z m347 -3 c8 -5 12 -11 10 -14
-3 -2 -14 2 -24 10 -22 15 -10 19 14 4z m140 6 c0 -2 -7 -7 -16 -10 -8 -3 -12
-2 -9 4 6 10 25 14 25 6z m153 -3 c-7 -2 -21 -2 -30 0 -10 3 -4 5 12 5 17 0
24 -2 18 -5z m184 -2 c6 6 21 9 34 7 18 -2 24 -9 24 -28 0 -19 -5 -24 -18 -22
-11 2 -29 -5 -40 -15 l-22 -18 20 23 c11 14 26 21 37 19 13 -4 18 1 18 14 0
24 -36 25 -64 2 -12 -10 -18 -14 -14 -9 4 5 0 15 -10 23 -15 13 -15 13 4 4 14
-7 24 -7 31 0z m196 2 c-7 -2 -21 -2 -30 0 -10 3 -4 5 12 5 17 0 24 -2 18 -5z
m210 0 c-7 -2 -19 -2 -25 0 -7 3 -2 5 12 5 14 0 19 -2 13 -5z m-5963 -7 c0 -2
-8 -10 -17 -17 -16 -13 -17 -12 -4 4 13 16 21 21 21 13z m99 -30 c-3 -3 -11 5
-18 17 -13 21 -12 21 5 5 10 -10 16 -20 13 -22z m115 18 c3 -8 2 -12 -4 -9 -6
3 -10 10 -10 16 0 14 7 11 14 -7z m116 1 c19 -22 8 -25 -12 -3 -10 10 -14 18
-9 18 5 0 14 -7 21 -15z m102 -13 c-15 -15 -29 -26 -31 -25 -6 4 41 53 50 53
4 0 -4 -13 -19 -28z m378 -9 c-11 -17 -11 -17 -6 0 3 10 6 24 7 30 0 9 2 9 5
0 3 -7 0 -20 -6 -30z m181 20 c13 -16 12 -17 -3 -4 -10 7 -18 15 -18 17 0 8 8
3 21 -13z m65 -3 c0 -11 -4 -20 -8 -20 -4 0 -8 9 -8 20 0 11 4 20 8 20 4 0 8
-9 8 -20z m171 -147 c-2 -32 -3 -6 -3 57 0 63 1 89 3 58 2 -32 2 -84 0 -115z
m43 57 c0 -60 -3 -110 -7 -110 -5 0 -7 49 -5 110 2 60 5 110 8 110 2 0 4 -49
4 -110z m109 107 c-2 -1 -15 -11 -29 -22 l-25 -20 19 23 c11 12 24 22 29 22 6
0 8 -1 6 -3z m235 -12 c3 -8 1 -15 -4 -15 -6 0 -10 7 -10 15 0 8 2 15 4 15 2
0 6 -7 10 -15z m1264 3 c17 -17 15 -48 -2 -48 -8 0 -18 4 -21 10 -3 6 1 7 9 4
22 -9 21 22 -1 35 -10 6 -13 11 -7 11 5 0 15 -5 22 -12z m203 -5 c13 -17 13
-17 -6 -3 -11 8 -22 16 -24 17 -2 2 0 3 6 3 6 0 17 -8 24 -17z m670 0 c13 -16
12 -17 -3 -4 -17 13 -22 21 -14 21 2 0 10 -8 17 -17z m229 -24 c0 -11 -4 -19
-10 -19 -5 0 -7 7 -4 15 4 8 0 23 -7 33 -13 15 -12 16 4 3 9 -7 17 -22 17 -32z
m67 18 c-12 -13 -24 -22 -26 -20 -6 4 30 43 40 43 5 0 -2 -10 -14 -23z m129 1
l19 -23 -25 20 c-14 11 -27 21 -29 22 -2 2 0 3 6 3 5 0 18 -10 29 -22z m605 5
c13 -17 13 -17 -6 -3 -11 8 -22 16 -24 17 -2 2 0 3 6 3 6 0 17 -8 24 -17z
m640 0 c13 -17 13 -17 -6 -3 -11 8 -22 16 -24 17 -2 2 0 3 6 3 6 0 17 -8 24
-17z m81 -126 c2 -42 0 -77 -4 -77 -5 0 -7 51 -6 113 1 115 5 101 10 -36z
m308 118 c13 -14 19 -25 14 -25 -8 1 -50 50 -41 50 2 0 14 -11 27 -25z m205 7
c-3 -3 -11 0 -18 7 -9 10 -8 11 6 5 10 -3 15 -9 12 -12z m-5162 -7 c-3 -9 -8
-14 -10 -11 -3 3 -2 9 2 15 9 16 15 13 8 -4z m656 -19 c-3 -3 -11 5 -18 17
-13 21 -12 21 5 5 10 -10 16 -20 13 -22z m1433 5 c-9 -16 -18 -28 -21 -26 -4
5 27 55 34 55 2 0 -4 -13 -13 -29z m918 25 c0 -2 -8 -10 -17 -17 -16 -13 -17
-12 -4 4 13 16 21 21 21 13z m717 -18 c-3 -8 -6 -5 -6 6 -1 11 2 17 5 13 3 -3
4 -12 1 -19z m83 18 c0 -2 -8 -10 -17 -17 -16 -13 -17 -12 -4 4 13 16 21 21
21 13z m640 0 c0 -2 -8 -10 -17 -17 -16 -13 -17 -12 -4 4 13 16 21 21 21 13z
m-3230 -10 c0 -2 -8 -10 -17 -17 -16 -13 -17 -12 -4 4 13 16 21 21 21 13z
m1301 -19 c-10 -9 -11 -8 -5 6 3 10 9 15 12 12 3 -3 0 -11 -7 -18z m2286 -7
c-7 -17 -13 -26 -15 -21 -3 10 15 51 22 51 3 0 -1 -14 -7 -30z m-5603 11 c3
-4 -6 -6 -19 -3 -14 2 -25 6 -25 8 0 8 39 4 44 -5z m211 2 c-11 -3 -29 -12
-40 -22 -20 -16 -20 -16 -1 7 11 12 29 21 40 21 20 -1 20 -2 1 -6z m255 3 c0
-2 -13 -6 -29 -8 -17 -2 -28 -1 -25 4 5 8 54 12 54 4z m450 -37 c0 -14 -7 -19
-27 -18 -24 2 -25 2 -5 6 25 5 28 22 10 43 -11 12 -10 12 5 1 9 -7 17 -22 17
-32z m203 34 c-7 -2 -19 -2 -25 0 -7 3 -2 5 12 5 14 0 19 -2 13 -5z m266 3
c-2 -2 -20 -6 -39 -10 -25 -4 -31 -3 -20 4 14 9 69 15 59 6z m226 -3 c-11 -3
-29 -12 -40 -22 -20 -16 -20 -16 -1 7 11 12 29 21 40 21 20 -1 20 -2 1 -6z
m956 -17 c8 4 10 3 5 -4 -11 -18 -24 -14 -36 11 -10 21 -10 21 4 3 8 -10 20
-15 27 -10z m122 9 c-3 -9 -8 -14 -10 -11 -3 3 -2 9 2 15 9 16 15 13 8 -4z
m689 7 c-6 -5 -19 -17 -28 -28 -8 -10 -12 -12 -8 -4 12 26 26 40 38 40 7 0 7
-3 -2 -8z m58 -7 c19 -22 8 -25 -12 -3 -10 10 -14 18 -9 18 5 0 14 -7 21 -15z
m48 -10 c-3 -3 -9 2 -12 12 -6 14 -5 15 5 6 7 -7 10 -15 7 -18z m176 16 c3 -4
-6 -6 -19 -3 -14 2 -25 6 -25 8 0 8 39 4 44 -5z m229 2 c3 -5 -12 -8 -34 -8
-22 -1 -33 2 -26 7 15 10 54 10 60 1z m757 3 c0 -2 -7 -7 -16 -10 -8 -3 -12
-2 -9 4 6 10 25 14 25 6z m640 0 c0 -2 -7 -7 -16 -10 -8 -3 -12 -2 -9 4 6 10
25 14 25 6z m51 -13 c13 -16 12 -17 -3 -4 -17 13 -22 21 -14 21 2 0 10 -8 17
-17z m492 2 c-3 -9 -8 -14 -10 -11 -3 3 -2 9 2 15 9 16 15 13 8 -4z m113 -7
c19 -23 19 -23 -1 -7 -11 10 -29 19 -40 22 -19 4 -19 5 1 6 11 0 29 -9 40 -21z
m-5996 8 c0 -2 -8 -10 -17 -17 -16 -13 -17 -12 -4 4 13 16 21 21 21 13z m1007
-28 c-3 -7 -5 -2 -5 12 0 14 2 19 5 13 2 -7 2 -19 0 -25z m461 7 c-3 -3 -9 2
-12 12 -6 14 -5 15 5 6 7 -7 10 -15 7 -18z m1006 17 c2 -4 -14 -6 -37 -4 -68
5 -76 10 -20 11 28 0 54 -2 57 -7z m1178 -5 c-6 -7 -13 -46 -15 -87 l-3 -75
-2 76 c-1 47 2 79 10 87 16 16 23 15 10 -1z m885 -34 c-3 -10 -5 -2 -5 17 0
19 2 27 5 18 2 -10 2 -26 0 -35z m-4430 -96 c-2 -23 -3 -1 -3 48 0 50 1 68 3
42 2 -26 2 -67 0 -90z m243 48 c0 -47 -3 -85 -7 -85 -5 0 -7 38 -5 85 2 47 5
85 8 85 2 0 4 -38 4 -85z m1400 0 c0 -47 -3 -85 -7 -85 -5 0 -7 38 -5 85 2 47
5 85 8 85 2 0 4 -38 4 -85z m397 55 c1 -22 1 -22 -4 -2 -5 25 -33 30 -33 5 0
-9 -3 -14 -6 -10 -4 3 -4 13 0 22 9 25 41 14 43 -15z m1917 16 c-4 -10 4 -14
31 -14 20 0 39 -3 42 -6 4 -3 -15 -6 -40 -6 -44 0 -60 13 -40 33 10 11 13 8 7
-7z m94 -17 c-3 -8 -7 -3 -11 10 -4 17 -3 21 5 13 5 -5 8 -16 6 -23z m39 -1
c-3 -7 -5 -2 -5 12 0 14 2 19 5 13 2 -7 2 -19 0 -25z m-3600 0 c-3 -8 -6 -5
-6 6 -1 11 2 17 5 13 3 -3 4 -12 1 -19z m920 0 c-3 -8 -6 -5 -6 6 -1 11 2 17
5 13 3 -3 4 -12 1 -19z m1590 -25 c-3 -10 -5 -2 -5 17 0 19 2 27 5 18 2 -10 2
-26 0 -35z m620 -65 c-2 -24 -4 -7 -4 37 0 44 2 63 4 43 2 -21 2 -57 0 -80z
m2100 65 c-3 -10 -5 -2 -5 17 0 19 2 27 5 18 2 -10 2 -26 0 -35z m-5760 -75
c-2 -24 -4 -7 -4 37 0 44 2 63 4 43 2 -21 2 -57 0 -80z m330 45 c-2 -16 -4 -5
-4 22 0 28 2 40 4 28 2 -13 2 -35 0 -50z m920 5 c-2 -13 -4 -3 -4 22 0 25 2
35 4 23 2 -13 2 -33 0 -45z m603 42 c-6 -11 -13 -20 -16 -20 -2 0 0 9 6 20 6
11 13 20 16 20 2 0 0 -9 -6 -20z m1150 10 c0 -5 -8 -10 -17 -10 -15 0 -16 2
-3 10 19 12 20 12 20 0z m287 -57 c-2 -16 -4 -5 -4 22 0 28 2 40 4 28 2 -13 2
-35 0 -50z m1260 15 c-2 -13 -4 -5 -4 17 -1 22 1 32 4 23 2 -10 2 -28 0 -40z
m190 15 c-3 -10 -5 -4 -5 12 0 17 2 24 5 18 2 -7 2 -21 0 -30z m450 -25 c-2
-13 -4 -3 -4 22 0 25 2 35 4 23 2 -13 2 -33 0 -45z m185 20 c-6 -6 -7 0 -4 19
5 21 7 23 10 9 2 -10 0 -22 -6 -28z m278 26 c0 -2 -9 -4 -20 -4 -11 0 -20 4
-20 9 0 5 9 7 20 4 11 -3 20 -7 20 -9z m70 6 c0 -5 -15 -9 -32 -9 l-33 1 30 8
c17 4 31 8 33 9 1 0 2 -3 2 -9z m77 -52 c-2 -13 -4 -3 -4 22 0 25 2 35 4 23 2
-13 2 -33 0 -45z m-5560 -55 c-2 -21 -4 -4 -4 37 0 41 2 58 4 38 2 -21 2 -55
0 -75z m1170 60 c-3 -10 -5 -2 -5 17 0 19 2 27 5 18 2 -10 2 -26 0 -35z m230
-60 c-2 -21 -4 -4 -4 37 0 41 2 58 4 38 2 -21 2 -55 0 -75z m265 91 c-24 -17
-29 -52 -9 -74 10 -12 9 -12 -5 -1 -10 7 -18 23 -18 34 0 22 27 57 44 57 6 0
0 -7 -12 -16z m476 9 c-16 -2 -40 -2 -55 0 -16 2 -3 4 27 4 30 0 43 -2 28 -4z
m279 -45 c-2 -13 -4 -5 -4 17 -1 22 1 32 4 23 2 -10 2 -28 0 -40z m296 45 c-7
-2 -21 -2 -30 0 -10 3 -4 5 12 5 17 0 24 -2 18 -5z m445 0 c-10 -2 -28 -2 -40
0 -13 2 -5 4 17 4 22 1 32 -1 23 -4z m1275 0 c-13 -2 -33 -2 -45 0 -13 2 -3 4
22 4 25 0 35 -2 23 -4z m640 0 c-13 -2 -33 -2 -45 0 -13 2 -3 4 22 4 25 0 35
-2 23 -4z m154 -100 c-2 -21 -4 -4 -4 37 0 41 2 58 4 38 2 -21 2 -55 0 -75z
m-5100 65 c-3 -7 -5 -2 -5 12 0 14 2 19 5 13 2 -7 2 -19 0 -25z m120 0 c-3 -7
-5 -2 -5 12 0 14 2 19 5 13 2 -7 2 -19 0 -25z m2360 10 c-3 -8 -6 -5 -6 6 -1
11 2 17 5 13 3 -3 4 -12 1 -19z m900 -15 c-3 -10 -5 -4 -5 12 0 17 2 24 5 18
2 -7 2 -21 0 -30z m-2947 23 c0 -2 -8 -10 -17 -17 -16 -13 -17 -12 -4 4 13 16
21 21 21 13z m1150 -21 c13 -14 21 -25 18 -25 -2 0 -15 11 -28 25 -13 14 -21
25 -18 25 2 0 15 -11 28 -25z m2557 3 c-3 -8 -6 -5 -6 6 -1 11 2 17 5 13 3 -3
4 -12 1 -19z m-3623 -49 c-9 -10 -27 -18 -38 -18 -20 1 -20 2 -1 6 30 8 45 23
46 47 1 18 2 18 6 3 3 -10 -3 -27 -13 -38z m2029 2 c8 -10 27 -12 67 -8 34 3
47 2 35 -3 -58 -24 -126 0 -124 44 1 20 2 20 6 1 3 -11 10 -26 16 -34z m1091
-1 c10 -13 9 -13 -6 -1 -10 7 -17 23 -17 35 1 20 2 20 6 1 3 -11 10 -27 17
-35z m1613 28 c-3 -8 -6 -5 -6 6 -1 11 2 17 5 13 3 -3 4 -12 1 -19z m-4167 -2
c0 -8 -12 -28 -26 -43 l-26 -28 21 29 c12 16 21 35 21 42 0 8 2 14 5 14 3 0 5
-6 5 -14z m377 -8 c-3 -8 -6 -5 -6 6 -1 11 2 17 5 13 3 -3 4 -12 1 -19z m3244
-5 c-12 -20 -14 -14 -5 12 4 9 9 14 11 11 3 -2 0 -13 -6 -23z m-2521 13 c0 -2
-7 -7 -16 -10 -8 -3 -12 -2 -9 4 6 10 25 14 25 6z m203 -37 c18 -1 19 -2 4 -6
-19 -5 -57 22 -57 41 0 6 7 0 16 -12 8 -12 25 -23 37 -23z m1697 37 c0 -2 -8
-10 -17 -17 -16 -13 -17 -12 -4 4 13 16 21 21 21 13z m1148 -51 c4 -6 -1 -2
-10 8 -10 11 -18 27 -17 36 0 10 4 7 10 -8 5 -14 13 -30 17 -36z m-4907 18
c-12 -20 -14 -14 -5 12 4 9 9 14 11 11 3 -2 0 -13 -6 -23z m620 10 c13 -16 12
-17 -3 -4 -10 7 -18 15 -18 17 0 8 8 3 21 -13z m1503 8 c3 -5 -3 -11 -15 -14
-16 -4 -18 -3 -8 9 13 16 16 17 23 5z m530 -7 c3 -8 2 -12 -4 -9 -6 3 -10 10
-10 16 0 14 7 11 14 -7z m560 7 c3 -5 -3 -11 -15 -14 -16 -4 -18 -3 -8 9 13
16 16 17 23 5z m2036 5 c0 -2 -8 -10 -17 -17 -16 -13 -17 -12 -4 4 13 16 21
21 21 13z m-3266 -22 c3 -8 2 -12 -4 -9 -6 3 -10 10 -10 16 0 14 7 11 14 -7z
m1816 13 c0 -2 -10 -12 -22 -23 l-23 -19 19 23 c18 21 26 27 26 19z m118 -48
c12 0 13 -2 4 -6 -14 -5 -62 33 -62 50 0 5 9 -2 21 -17 11 -14 28 -26 37 -27z
m640 0 c12 0 13 -2 4 -6 -14 -5 -62 33 -62 50 0 5 9 -2 21 -17 11 -14 28 -26
37 -27z m455 34 c33 3 45 2 32 -3 -36 -15 -92 -11 -106 8 -13 15 -12 16 4 3
12 -10 33 -12 70 -8z m111 1 c3 -8 2 -12 -4 -9 -6 3 -10 10 -10 16 0 14 7 11
14 -7z m-5388 -12 c-10 -2 -22 0 -28 6 -6 6 0 7 19 4 21 -5 23 -7 9 -10z
m2084 -1 c-5 -11 -15 -23 -21 -27 -6 -3 -3 5 6 20 20 30 30 35 15 7z m955 9
c9 -14 -13 -40 -34 -39 -11 0 -9 3 7 9 24 10 29 26 10 33 -10 4 -10 6 -1 6 6
1 15 -4 18 -9z m381 -8 c-10 -2 -22 0 -28 6 -6 6 0 7 19 4 21 -5 23 -7 9 -10z
m271 12 c-3 -3 -12 -4 -19 -1 -8 3 -5 6 6 6 11 1 17 -2 13 -5z m539 -12 c-16
-2 -32 0 -37 5 -5 5 7 7 29 4 34 -5 35 -6 8 -9z m74 4 c0 -18 -26 -39 -42 -33
-8 4 -7 6 4 6 23 1 34 21 17 32 -11 7 -10 9 4 9 9 0 17 -6 17 -14z m371 -13
c-12 -20 -14 -14 -5 12 4 9 9 14 11 11 3 -2 0 -13 -6 -23z m228 11 c10 -9 -65
-3 -78 5 -10 6 1 8 30 4 24 -3 46 -7 48 -9z m36 6 c8 -12 -12 -40 -28 -40 -6
0 -2 7 9 15 16 13 17 16 4 25 -9 6 -10 10 -3 10 6 0 15 -5 18 -10z m-4855 -4
c0 -2 -8 -10 -17 -17 -16 -13 -17 -12 -4 4 13 16 21 21 21 13z m427 -28 c-3
-7 -5 -2 -5 12 0 14 2 19 5 13 2 -7 2 -19 0 -25z m420 26 c-3 -3 -12 -4 -19
-1 -8 3 -5 6 6 6 11 1 17 -2 13 -5z m586 -1 c-7 -2 -19 -2 -25 0 -7 3 -2 5 12
5 14 0 19 -2 13 -5z m637 -13 c6 -11 8 -20 6 -20 -3 0 -10 9 -16 20 -6 11 -8
20 -6 20 3 0 10 -9 16 -20z m231 -3 c-10 -9 -11 -8 -5 6 3 10 9 15 12 12 3 -3
0 -11 -7 -18z m70 6 c13 -16 12 -17 -3 -4 -17 13 -22 21 -14 21 2 0 10 -8 17
-17z m527 10 c-10 -2 -26 -2 -35 0 -10 3 -2 5 17 5 19 0 27 -2 18 -5z m377
-13 c10 -11 16 -20 13 -20 -3 0 -13 9 -23 20 -10 11 -16 20 -13 20 3 0 13 -9
23 -20z m186 3 c13 -16 12 -17 -3 -4 -17 13 -22 21 -14 21 2 0 10 -8 17 -17z
m97 10 c-10 -2 -26 -2 -35 0 -10 3 -2 5 17 5 19 0 27 -2 18 -5z m1829 1 c-3
-3 -12 -4 -19 -1 -8 3 -5 6 6 6 11 1 17 -2 13 -5z m-4853 -33 c-2 -3 -12 3
-22 13 -16 17 -16 18 5 5 12 -7 20 -15 17 -18z m1979 8 c-6 -6 -19 -9 -29 -6
-16 4 -15 5 4 6 12 0 22 6 22 13 0 6 3 8 7 5 4 -4 2 -12 -4 -18z m877 6 c-7
-8 -17 -15 -23 -15 -6 0 -2 7 9 15 25 19 30 19 14 0z m1155 -14 c-6 -5 -25 10
-25 20 0 5 6 4 14 -3 8 -7 12 -15 11 -17z m895 17 c0 -6 -3 -8 -7 -5 -3 4 -13
1 -22 -6 -14 -11 -14 -10 -2 6 15 20 31 22 31 5z m-5565 -16 c-3 -3 -11 0 -18
7 -9 10 -8 11 6 5 10 -3 15 -9 12 -12z m525 11 c0 -5 -12 -9 -27 -10 -19 -1
-22 1 -12 8 17 11 39 12 39 2z m395 -11 c-3 -3 -11 0 -18 7 -9 10 -8 11 6 5
10 -3 15 -9 12 -12z m625 -10 c3 -3 -8 -2 -25 2 -16 4 -34 12 -40 17 -5 5 6 4
25 -2 19 -7 37 -14 40 -17z m785 10 c-3 -3 -11 0 -18 7 -9 10 -8 11 6 5 10 -3
15 -9 12 -12z m630 0 c-3 -3 -11 0 -18 7 -9 10 -8 11 6 5 10 -3 15 -9 12 -12z
m770 8 c-3 -5 -16 -10 -28 -9 -20 1 -20 2 3 9 14 4 26 8 28 9 2 1 0 -3 -3 -9z
m1630 0 c-3 -5 -14 -10 -23 -9 -14 0 -13 2 3 9 27 11 27 11 20 0z m-4645 -10
c-8 -5 -22 -9 -30 -9 -10 0 -8 3 5 9 27 12 43 12 25 0z m1000 0 c0 -5 -5 -10
-11 -10 -5 0 -7 5 -4 10 3 6 8 10 11 10 2 0 4 -4 4 -10z m-1253 -6 c-3 -3 -12
-4 -19 -1 -8 3 -5 6 6 6 11 1 17 -2 13 -5z m510 0 c-3 -3 -12 -4 -19 -1 -8 3
-5 6 6 6 11 1 17 -2 13 -5z m1606 -1 c-7 -2 -19 -2 -25 0 -7 3 -2 5 12 5 14 0
19 -2 13 -5z m2714 1 c-3 -3 -12 -4 -19 -1 -8 3 -5 6 6 6 11 1 17 -2 13 -5z"/>
<path d="M1165 2118 c-22 -6 -51 -19 -65 -28 -14 -10 -36 -21 -50 -25 -39 -12
-120 -98 -146 -155 -20 -44 -24 -67 -24 -156 0 -94 2 -107 25 -141 14 -21 31
-47 38 -57 45 -69 156 -150 256 -186 34 -13 66 -31 72 -42 5 -10 20 -18 32
-18 12 -1 40 -9 62 -20 22 -11 45 -19 51 -20 7 0 15 -7 18 -15 3 -9 28 -26 56
-39 27 -13 47 -26 43 -30 -3 -3 1 -6 9 -6 9 0 31 -15 50 -32 18 -18 53 -51 78
-74 25 -22 58 -59 74 -82 16 -23 32 -42 36 -42 11 0 48 -65 56 -95 3 -14 10
-25 15 -25 22 0 58 -121 65 -220 1 -19 2 -41 3 -47 1 -7 7 -13 14 -13 14 0 67
51 67 65 0 4 17 33 37 63 20 31 48 90 63 131 14 42 33 87 41 101 11 20 14 70
14 235 l0 210 -40 109 c-46 130 -113 255 -175 328 -60 71 -182 188 -197 188
-6 0 -25 11 -41 25 -17 14 -35 25 -41 25 -6 0 -26 9 -46 20 -20 11 -43 20 -51
20 -9 0 -28 6 -42 14 -75 39 -266 57 -357 34z"/>
<path d="M985 1460 c13 -22 139 -102 290 -185 88 -49 194 -112 236 -142 42
-29 79 -50 83 -48 3 3 4 2 1 -1 -2 -4 22 -35 53 -70 100 -108 134 -205 131
-363 l-2 -85 54 -43 c30 -23 58 -42 62 -43 10 0 4 188 -7 232 -9 38 -72 167
-99 203 -38 51 -169 179 -232 226 -89 66 -150 102 -323 186 -86 43 -175 92
-199 110 -44 34 -59 41 -48 23z"/>
<path d="M2635 1997 c-92 -37 -105 -64 -105 -212 0 -125 14 -158 126 -294 32
-40 86 -119 98 -146 14 -30 18 -85 17 -222 -1 -80 -14 -103 -60 -103 -52 0
-61 23 -61 158 l0 122 -62 0 -63 0 5 -106 c5 -104 6 -106 37 -134 76 -68 226
-67 291 3 34 36 42 79 36 186 -7 114 -17 136 -118 269 -124 165 -125 168 -126
312 -1 69 1 132 5 142 8 19 34 27 69 21 42 -8 49 -26 47 -122 -1 -49 1 -106 5
-125 6 -36 6 -36 60 -36 l54 0 0 103 c0 113 -7 131 -63 166 -41 25 -150 36
-192 18z"/>
<path d="M6093 1986 c-40 -19 -57 -34 -74 -67 -19 -38 -21 -55 -17 -145 5
-117 6 -117 131 -284 111 -146 117 -161 117 -300 0 -142 -4 -157 -41 -165 -68
-15 -92 22 -89 142 4 144 9 133 -61 133 l-61 0 4 -95 c4 -107 18 -135 83 -172
50 -28 153 -29 207 -2 67 34 78 62 78 191 0 114 -14 169 -51 208 -8 9 -30 38
-49 65 -19 28 -38 55 -42 60 -100 130 -101 133 -105 269 -4 144 5 166 67 166
29 0 42 -5 50 -19 5 -11 10 -74 10 -140 l0 -121 61 0 61 0 -4 104 c-3 104 -3
105 -37 140 -57 59 -152 72 -238 32z"/>
<path d="M3458 1953 c-1 -27 -2 -63 0 -80 3 -33 4 -33 58 -33 l54 0 0 80 0 80
-54 0 -54 0 -4 -47z"/>
<path d="M4040 1989 c-50 -22 -76 -46 -89 -82 -7 -18 -11 -165 -11 -412 l0
-383 27 -33 c79 -93 266 -93 332 0 18 25 21 44 21 125 l0 96 -59 0 -59 0 -1
-122 c-1 -112 -3 -125 -22 -140 -28 -24 -74 -23 -99 2 -19 19 -20 33 -20 468
0 422 1 450 18 465 22 20 80 22 105 3 15 -11 17 -31 17 -140 l0 -126 60 0 60
0 0 104 0 104 -39 34 c-62 57 -163 72 -241 37z"/>
<path d="M7433 1975 l-53 -20 -1 -105 c0 -58 0 -248 1 -423 0 -353 -1 -346 67
-384 41 -23 143 -39 143 -23 0 6 -15 10 -33 10 -67 0 -67 -1 -67 368 l0 332
45 0 c25 0 45 3 45 8 0 4 -19 7 -42 7 l-43 0 -5 125 -5 126 -52 -21z"/>
<path d="M7340 1740 c0 -5 5 -10 11 -10 5 0 7 5 4 10 -3 6 -8 10 -11 10 -2 0
-4 -4 -4 -10z"/>
<path d="M377 1863 c-2 -5 -5 -42 -6 -83 -5 -183 91 -381 257 -535 93 -86 104
-94 212 -163 58 -37 106 -70 108 -74 2 -5 8 -8 14 -8 15 0 242 -115 268 -136
13 -11 44 -37 68 -59 26 -23 41 -32 34 -20 -26 50 -224 187 -410 284 -38 20
-195 132 -204 145 -4 6 -8 8 -8 4 0 -11 -81 73 -122 126 -71 92 -110 249 -91
365 l10 62 -58 49 c-59 52 -65 55 -72 43z"/>
<path d="M3070 1731 c-55 -29 -80 -74 -80 -142 l0 -59 60 0 60 0 0 89 c0 95
11 121 50 121 23 0 50 -25 51 -48 1 -9 2 -72 3 -139 l1 -123 -37 0 c-66 0
-134 -20 -159 -46 -22 -24 -24 -35 -27 -156 -2 -72 -1 -141 2 -154 13 -52 118
-82 190 -54 14 5 28 5 30 1 8 -12 143 -13 151 -1 3 5 -3 10 -14 10 -21 0 -21
4 -21 306 0 350 -2 358 -74 394 -54 26 -139 27 -186 1z m135 -321 c11 0 13
-35 12 -181 l-2 -181 -28 -15 c-35 -18 -65 -9 -78 24 -13 35 -11 297 2 327 11
24 40 37 67 30 8 -2 20 -4 27 -4z"/>
<path d="M3138 1389 c-16 -9 -18 -28 -18 -162 1 -165 8 -192 52 -185 l23 3 0
175 c0 168 -1 175 -20 177 -11 2 -28 -2 -37 -8z"/>
<path d="M4505 1730 c-50 -25 -77 -67 -80 -130 -4 -65 2 -72 65 -68 l53 3 -2
71 c-1 40 3 82 10 97 16 35 53 45 79 22 18 -16 20 -32 20 -155 l0 -137 -63 -5
c-35 -3 -80 -13 -101 -23 -56 -27 -66 -55 -66 -193 0 -107 2 -122 23 -153 12
-18 33 -36 47 -40 38 -11 106 -10 134 1 16 6 27 6 31 0 8 -14 142 -13 150 1 4
6 0 9 -11 7 -18 -3 -19 13 -24 314 -5 301 -6 318 -26 345 -46 62 -159 83 -239
43z m129 -316 c14 -5 16 -31 16 -185 l0 -179 -26 -17 c-24 -15 -29 -15 -53 -2
l-26 15 -3 167 c-3 180 0 190 49 200 13 2 25 5 26 6 1 0 8 -2 17 -5z"/>
<path d="M4590 1391 l-25 -7 0 -169 0 -170 26 -3 c45 -5 50 12 47 189 -2 98
-7 163 -13 165 -5 1 -21 -1 -35 -5z"/>
<path d="M4865 1740 c-16 -7 -16 -9 -4 -9 9 -1 20 -8 23 -17 3 -9 6 -166 6
-350 l0 -334 -26 0 c-14 0 -23 -4 -19 -10 3 -6 48 -10 101 -10 56 0 94 4 94
10 0 6 -9 10 -20 10 -20 0 -20 7 -20 338 l0 339 24 12 c35 19 69 10 77 -19 4
-14 7 -58 8 -97 l1 -73 56 0 56 0 -3 85 c-3 72 -7 88 -27 107 -19 20 -32 23
-85 21 -34 0 -71 -2 -82 -4 -11 -1 -47 0 -80 4 -33 3 -69 2 -80 -3z"/>
<path d="M5395 1736 c-42 -19 -72 -48 -85 -80 -14 -39 -13 -531 2 -559 28 -55
78 -82 155 -86 74 -3 129 16 164 58 25 31 29 44 29 98 l0 63 -54 0 c-65 0 -68
-5 -65 -109 2 -60 -1 -74 -17 -87 -22 -17 -83 -12 -96 8 -4 7 -7 84 -5 171 l2
159 118 -1 117 0 0 132 c0 159 -11 190 -80 225 -51 25 -137 29 -185 8z m126
-14 c21 -18 22 -24 22 -173 l-1 -154 -61 -3 -61 -3 0 160 c0 154 1 160 22 175
29 21 51 20 79 -2z"/>
<path d="M5440 1699 c-7 -13 -10 -70 -8 -157 l3 -137 41 -3 c38 -3 42 0 48 23
4 14 6 80 5 146 -1 91 -5 123 -16 134 -21 22 -60 19 -73 -6z"/>
<path d="M7035 1741 c-82 -28 -105 -67 -105 -176 0 -41 5 -86 12 -100 6 -14
51 -59 101 -101 53 -46 94 -90 103 -110 20 -48 19 -198 -2 -218 -19 -19 -54
-21 -78 -3 -18 13 -21 33 -25 155 l-1 42 -55 0 -56 0 3 -67 c2 -50 7 -67 16
-65 8 1 10 -2 7 -8 -9 -15 23 -50 61 -66 17 -7 61 -12 100 -11 86 2 125 26
150 92 19 52 15 155 -10 202 -7 15 -51 60 -96 98 -45 39 -88 82 -95 96 -16 31
-26 175 -14 206 10 27 49 39 78 23 19 -9 21 -20 21 -90 0 -108 1 -110 66 -110
l54 0 0 59 c0 78 -21 115 -82 141 -46 20 -114 25 -153 11z"/>
<path d="M8100 1740 c0 -5 5 -10 11 -10 5 0 7 5 4 10 -3 6 -8 10 -11 10 -2 0
-4 -4 -4 -10z"/>
<path d="M8143 1743 c-10 -4 -13 -85 -13 -359 0 -308 -2 -354 -15 -354 -8 0
-15 -4 -15 -8 0 -4 35 -8 78 -9 l77 -2 -3 346 c-2 215 1 350 7 356 26 26 -68
50 -116 30z"/>
<path d="M8290 1740 c-11 -7 -6 -10 21 -10 19 0 40 -5 47 -12 9 -9 12 -103 12
-360 l0 -348 75 0 c43 0 75 4 75 10 0 6 -9 10 -19 10 -18 0 -19 13 -20 340
l-2 339 36 15 c25 11 43 13 60 6 l25 -10 1 -340 c1 -187 2 -346 3 -352 1 -17
134 -24 149 -9 8 8 5 11 -11 11 l-22 0 0 323 c0 276 -2 326 -16 345 -37 54
-126 67 -201 31 l-43 -21 -26 21 c-29 23 -116 29 -144 11z"/>
<path d="M8270 1020 c0 -5 5 -10 10 -10 6 0 10 5 10 10 0 6 -4 10 -10 10 -5 0
-10 -4 -10 -10z"/>
<path d="M8921 1740 c-18 -4 -48 -22 -65 -39 -28 -28 -31 -38 -34 -107 -6
-117 6 -142 111 -232 53 -44 95 -89 103 -108 8 -19 14 -68 14 -111 0 -87 -16
-123 -54 -123 -44 0 -55 20 -60 105 -2 44 -5 86 -5 93 -1 8 -19 12 -56 12
l-55 0 0 -62 c0 -50 5 -67 26 -95 61 -80 201 -87 284 -13 23 20 25 30 28 120
5 123 -2 138 -114 231 -47 39 -90 83 -96 98 -5 14 -11 65 -11 113 -1 76 1 89
18 103 22 16 65 12 77 -8 7 -11 13 -97 11 -158 -1 -25 2 -26 58 -28 l59 -2 0
65 c0 63 -2 68 -38 104 -50 50 -112 63 -201 42z"/>
<path d="M3431 1740 c-9 -5 -6 -9 8 -13 21 -5 21 -9 21 -347 0 -333 0 -342
-20 -347 -11 -3 -20 -9 -20 -13 0 -12 178 -12 185 0 3 5 -2 10 -13 10 -17 0
-18 14 -17 323 0 177 -2 338 -5 357 l-5 35 -61 1 c-34 1 -67 -1 -73 -6z"/>
<path d="M6451 1741 c-9 -6 -7 -10 8 -14 21 -5 21 -8 21 -318 -1 -292 0 -315
18 -338 36 -49 96 -63 171 -41 19 5 37 7 40 5 3 -3 4 -45 2 -93 -3 -92 -16
-122 -53 -122 -42 0 -58 19 -58 66 0 68 -10 80 -69 83 l-51 2 0 -36 c0 -19 5
-35 10 -35 6 0 10 -7 10 -14 0 -8 16 -27 35 -42 30 -22 49 -28 108 -31 85 -5
129 13 164 66 23 34 23 34 23 447 l0 413 -34 6 c-18 4 -53 2 -77 -3 -24 -5
-36 -10 -26 -11 16 -1 17 -24 17 -336 0 -327 0 -335 -20 -345 -12 -6 -35 -10
-53 -8 -30 3 -32 6 -38 48 -4 25 -7 179 -7 343 0 164 -3 301 -7 305 -10 10
-119 12 -134 3z"/>
<path d="M7752 1730 c-51 -23 -68 -39 -82 -76 -13 -34 -12 -517 1 -552 24 -62
104 -98 202 -89 100 9 147 60 147 160 l0 57 -61 0 -60 0 2 -92 c2 -103 -7
-118 -68 -118 -49 0 -54 19 -51 197 l3 158 118 -3 117 -4 0 137 c0 84 -4 145
-12 158 -41 79 -161 110 -256 67z m140 -8 c10 -10 18 -263 11 -304 -5 -27 -8
-28 -64 -28 l-59 0 -1 120 c-1 66 -1 130 -2 143 -1 39 12 75 31 80 21 7 74 -1
84 -11z"/>
<path d="M7806 1701 c-10 -15 -16 -213 -8 -256 7 -37 10 -40 43 -43 46 -4 49
5 49 153 0 144 -3 155 -46 155 -18 0 -35 -4 -38 -9z"/>
<path d="M8050 580 c0 -13 7 -20 20 -20 13 0 20 7 20 20 0 13 -7 20 -20 20
-13 0 -20 -7 -20 -20z"/>
</g>
</svg>
