<?xml version="1.0" standalone="no"?>
<!DOCTYPE svg PUBLIC "-//W3C//DTD SVG 20010904//EN"
 "http://www.w3.org/TR/2001/REC-SVG-20010904/DTD/svg10.dtd">
<svg version="1.0" xmlns="http://www.w3.org/2000/svg"
 width="2008.000000pt" height="900.000000pt" viewBox="0 0 2008.000000 900.000000"
 preserveAspectRatio="xMidYMid meet">
<metadata>
Created by potrace 1.16, written by Peter Selinger 2001-2019
</metadata>
<g transform="translate(0.000000,900.000000) scale(0.100000,-0.100000)"
fill="#000000" stroke="none">
<path d="M2990 5290 l0 -720 720 0 720 0 0 720 0 720 -720 0 -720 0 0 -720z"/>
<path d="M16044 5525 c-154 -33 -276 -141 -329 -290 -12 -35 -19 -93 -22 -192
l-6 -143 -103 0 -104 0 0 -130 0 -130 105 0 105 0 0 -520 0 -520 160 0 160 0
0 520 0 520 220 0 220 0 0 -363 c0 -220 4 -387 11 -423 22 -121 88 -213 184
-255 94 -42 262 -45 387 -7 l38 11 0 133 0 133 -42 -19 c-24 -11 -65 -20 -93
-20 -70 0 -115 25 -142 80 -23 43 -23 51 -23 387 l0 343 150 0 150 0 0 130 0
130 -150 0 -150 0 0 191 c0 177 -1 191 -17 186 -10 -2 -82 -24 -160 -48 l-143
-43 0 -143 0 -143 -220 0 -220 0 0 103 c0 56 5 120 11 142 20 72 106 135 185
135 20 0 88 -19 127 -35 16 -7 17 3 17 133 l0 140 -63 11 c-82 14 -166 13
-243 -4z"/>
<path d="M9241 5440 c-95 -23 -156 -126 -131 -219 42 -157 254 -188 348 -51
25 37 31 134 11 173 -17 32 -50 67 -79 82 -34 17 -108 25 -149 15z"/>
<path d="M6890 4505 l0 -905 150 0 150 0 2 693 3 694 280 -691 281 -691 111
-3 111 -3 171 433 c95 238 218 549 274 690 l102 258 3 -690 2 -690 160 0 160
0 0 905 0 905 -217 0 -218 0 -270 -661 c-148 -363 -272 -662 -275 -664 -3 -1
-120 295 -261 659 l-256 661 -232 3 -231 2 0 -905z"/>
<path d="M10211 4918 c-245 -35 -432 -189 -512 -422 -125 -361 -2 -724 291
-864 109 -52 178 -66 320 -65 119 1 201 15 303 53 l57 21 0 150 c0 82 -2 149
-4 149 -2 0 -29 -16 -61 -35 -96 -57 -173 -78 -274 -73 -151 7 -251 73 -314
206 -31 65 -32 72 -32 197 1 161 19 216 101 304 131 142 339 160 527 47 l57
-35 0 154 0 154 -57 21 c-123 46 -258 59 -402 38z"/>
<path d="M12234 4920 c-297 -33 -499 -214 -559 -502 -20 -93 -19 -290 1 -381
26 -119 77 -212 158 -292 129 -128 263 -177 481 -177 100 0 148 4 208 21 242
64 400 234 451 483 20 98 20 267 1 366 -48 236 -217 416 -436 466 -84 19 -217
26 -305 16z m197 -276 c103 -30 177 -107 211 -219 18 -62 26 -181 17 -262 -14
-121 -41 -188 -103 -249 -65 -63 -121 -84 -227 -84 -196 0 -311 110 -340 323
-27 199 36 383 158 458 78 48 189 61 284 33z"/>
<path d="M13525 4923 c-111 -15 -219 -66 -290 -137 -72 -72 -98 -131 -103
-234 -8 -151 30 -242 135 -320 52 -40 57 -42 234 -126 124 -59 164 -92 175
-150 7 -41 -10 -81 -48 -110 -22 -15 -48 -21 -119 -24 -79 -4 -101 -1 -175 23
-46 15 -109 43 -140 61 -31 19 -58 34 -60 34 -3 0 -3 -71 -2 -157 l3 -158 76
-22 c211 -60 434 -48 585 30 51 26 128 103 156 154 79 147 53 336 -62 444 -47
44 -78 61 -313 174 -89 42 -101 51 -118 88 -23 51 -23 60 -3 103 44 93 226
100 400 14 34 -16 64 -30 68 -30 3 0 6 67 6 149 l0 148 -57 16 c-111 31 -250
43 -348 30z"/>
<path d="M14694 4920 c-233 -26 -406 -142 -499 -335 -61 -126 -79 -221 -73
-394 4 -118 9 -147 34 -221 50 -142 130 -243 249 -315 122 -73 297 -105 468
-85 274 32 462 178 544 424 26 76 27 92 27 261 1 172 -1 184 -27 260 -39 109
-85 181 -162 253 -105 99 -226 145 -405 155 -47 3 -117 2 -156 -3z m230 -285
c153 -65 228 -251 196 -485 -21 -159 -96 -267 -209 -305 -83 -27 -212 -18
-287 21 -134 68 -200 240 -174 452 23 178 104 291 238 329 60 16 184 10 236
-12z"/>
<path d="M11435 4907 c-92 -24 -151 -68 -205 -153 l-30 -48 0 97 0 97 -155 0
-155 0 0 -650 0 -650 155 0 155 0 0 343 c0 361 7 448 41 527 28 64 103 135
160 150 57 16 144 8 203 -18 l46 -21 0 158 c0 142 -2 160 -17 166 -35 13 -149
14 -198 2z"/>
<path d="M9140 4250 l0 -650 155 0 155 0 0 650 0 650 -155 0 -155 0 0 -650z"/>
</g>
</svg>
